<?xml version="1.0" encoding="UTF-8" standalone="no"?>
<svg
   sodipodi:docname="contact.svg"
   id="svg9"
   xml:space="preserve"
   viewBox="0 0 512 512"
   height="512"
   width="512"
   version="1.1"
   inkscape:version="1.2.2 (b0a84865, 2022-12-01)"
   xmlns:inkscape="http://www.inkscape.org/namespaces/inkscape"
   xmlns:sodipodi="http://sodipodi.sourceforge.net/DTD/sodipodi-0.dtd"
   xmlns="http://www.w3.org/2000/svg"
   xmlns:svg="http://www.w3.org/2000/svg"><sodipodi:namedview
   id="namedview11"
   pagecolor="#ffffff"
   bordercolor="#000000"
   borderopacity="0.25"
   inkscape:showpageshadow="2"
   inkscape:pageopacity="0.0"
   inkscape:pagecheckerboard="0"
   inkscape:deskcolor="#d1d1d1"
   showgrid="false"
   inkscape:zoom="0.4609375"
   inkscape:cx="256"
   inkscape:cy="256"
   inkscape:window-width="1440"
   inkscape:window-height="456"
   inkscape:window-x="12"
   inkscape:window-y="249"
   inkscape:window-maximized="0"
   inkscape:current-layer="NaB12gCupDTQkycqQtRBJ"
   showguides="false" />
<desc
   id="desc2">Created with Fabric.js 5.3.0</desc>
<defs
   id="defs4">
</defs>
<g
   transform="matrix(1 0 0 1 256 256)"
   id="NaB12gCupDTQkycqQtRBJ">
<path
   style="stroke:none;stroke-width:1;stroke-dasharray:none;stroke-linecap:butt;stroke-dashoffset:0;stroke-linejoin:miter;stroke-miterlimit:4;fill:#dddddd;fill-rule:nonzero;opacity:1;fill-opacity:1.0"
   vector-effect="non-scaling-stroke"
   transform=" translate(-256.0112738328, -255.9887261672)"
   d="M 164.9 24.6 C 157.20000000000002 6 136.9 -3.8999999999999986 117.5 1.4000000000000021 L 29.5 25.400000000000002 C 12.1 30.2 0 46 0 64 C 0 311.4 200.6 512 448 512 C 466 512 481.8 499.9 486.6 482.5 L 510.6 394.5 C 515.9 375.1 506 354.8 487.40000000000003 347.1 L 391.40000000000003 307.1 C 375.1 300.3 356.20000000000005 305 345.1 318.70000000000005 L 304.7 368 C 234.3 334.7 177.3 277.7 144 207.3 L 193.3 167 C 207 155.8 211.70000000000002 137 204.9 120.7 L 164.9 24.700000000000003 z"
   stroke-linecap="round"
   id="path6" />
</g>
</svg>
