<?xml version="1.0" encoding="UTF-8" standalone="no"?>
<svg
   version="1.1"
   width="512"
   height="512"
   viewBox="0 0 512 512"
   xml:space="preserve"
   id="svg530"
   sodipodi:docname="map.svg"
   inkscape:version="1.2.2 (b0a84865, 2022-12-01)"
   xmlns:inkscape="http://www.inkscape.org/namespaces/inkscape"
   xmlns:sodipodi="http://sodipodi.sourceforge.net/DTD/sodipodi-0.dtd"
   xmlns="http://www.w3.org/2000/svg"
   xmlns:svg="http://www.w3.org/2000/svg"><sodipodi:namedview
   id="namedview532"
   pagecolor="#ffffff"
   bordercolor="#000000"
   borderopacity="0.25"
   inkscape:showpageshadow="2"
   inkscape:pageopacity="0.0"
   inkscape:pagecheckerboard="0"
   inkscape:deskcolor="#d1d1d1"
   showgrid="false"
   inkscape:zoom="0.4609375"
   inkscape:cx="256"
   inkscape:cy="256"
   inkscape:window-width="1440"
   inkscape:window-height="456"
   inkscape:window-x="0"
   inkscape:window-y="25"
   inkscape:window-maximized="0"
   inkscape:current-layer="svg530" />
<desc
   id="desc523">Created with Fabric.js 5.3.0</desc>
<defs
   id="defs525">
</defs>
<g
   transform="matrix(1 0 0 1 256 256)"
   id="2pWEl7ZvPNN2aYbdwQuyM">
<path
   style="stroke:none;stroke-width:1;stroke-dasharray:none;stroke-linecap:butt;stroke-dashoffset:0;stroke-linejoin:miter;stroke-miterlimit:4;fill:#dddddd;fill-rule:nonzero;opacity:1;fill-opacity:1.0"
   vector-effect="non-scaling-stroke"
   transform=" translate(-160, -256)"
   d="M 16 144 C 16 64.47099602436575 80.47099602436575 0 160 0 C 239.52900397563425 0 304 64.47099602436572 304 143.99999999999997 C 304 223.52900397563425 239.52900397563425 288 160 288 C 80.47099602436575 288 16 223.52900397563425 16 144 z M 160 80 C 168.8 80 176 72.8 176 64 C 176 55.2 168.8 48 160 48 C 107 48 64 91 64 144 C 64 152.8 71.2 160 80 160 C 88.8 160 96 152.8 96 144 C 96 108.7 124.7 80 160 80 z M 128 480 L 128 317.1 C 138.4 319 149.1 320 160 320 C 170.9 320 181.6 319 192 317.1 L 192 480 C 192 497.7 177.7 512 160 512 C 142.3 512 128 497.7 128 480 z"
   stroke-linecap="round"
   id="path527" />
</g>
</svg>
